<svg version="1.1" id="Layer_1" xmlns="http://www.w3.org/2000/svg" xmlns:xlink="http://www.w3.org/1999/xlink" x="0px" y="0px"
	 width="100%" viewBox="0 0 256 192" enable-background="new 0 0 256 192" xml:space="preserve">
<path fill="#FDFEFE" opacity="1.000000" stroke="none"
	d="
M154.000000,193.000000
	C102.666672,193.000000 51.833340,193.000000 1.000007,193.000000
	C1.000005,129.000000 1.000005,65.000015 1.000002,1.000015
	C86.333321,1.000010 171.666641,1.000010 257.000000,1.000005
	C257.000000,64.999985 257.000000,128.999969 257.000000,192.999969
	C222.833328,193.000000 188.666672,193.000000 154.000000,193.000000
M163.219452,129.071396
	C163.015121,128.799347 162.745819,128.631622 162.062485,129.016388
	C162.181595,128.868027 162.300705,128.719650 162.217590,128.112000
	C161.941238,127.935089 161.664871,127.758171 161.092102,128.000977
	C161.197769,127.866058 161.303421,127.731140 161.210281,127.129280
	C160.931046,126.950462 160.651810,126.771645 160.359009,126.564354
	C160.359009,126.564354 160.393890,126.565254 160.305679,126.197433
	C160.305679,126.197433 159.984650,125.997414 160.115829,125.240181
	C160.896042,123.708885 161.676254,122.177589 162.752609,120.065063
	C155.732727,120.065063 149.598785,120.205170 143.475281,120.013100
	C139.736435,119.895836 136.930191,121.092438 134.166000,123.683899
	C121.618843,135.446960 106.720932,140.519485 89.663467,137.571030
	C66.172249,133.510468 47.938240,113.974495 45.113026,90.480019
	C42.066845,65.148026 54.484043,41.485363 76.140396,31.353113
	C97.940971,21.153385 121.401680,26.535986 138.932129,45.686638
	C140.002060,46.855453 141.478302,48.394306 142.818817,48.448780
	C149.699783,48.728401 156.598221,48.578270 164.063629,48.578270
	C158.968216,37.267479 151.812943,28.673056 142.920319,21.451874
	C108.066338,-6.851023 59.222912,4.843802 37.367313,39.127628
	C36.887848,40.072750 36.408379,41.017876 36.001194,41.981415
	C36.001194,41.981415 35.953182,41.924328 35.440048,42.248775
	C35.232822,42.809036 35.025597,43.369301 34.912125,43.929276
	C34.912125,43.929276 34.877712,43.842072 34.304947,44.222317
	C33.174652,46.806248 32.044357,49.390182 30.990198,51.973465
	C30.990198,51.973465 30.941729,51.914745 30.403400,52.388260
	C28.750723,58.928509 27.098045,65.468758 25.191919,72.644943
	C25.198317,73.098434 25.204714,73.551933 24.993332,74.919495
	C25.082163,80.268463 25.170994,85.617424 25.186584,91.675232
	C25.335960,92.118568 25.485338,92.561913 25.521872,93.762207
	C26.948837,99.039520 28.375805,104.316833 29.739706,109.835472
	C29.739706,109.835472 29.931562,109.994858 29.929207,110.699875
	C30.609692,112.149345 31.290176,113.598808 32.006924,115.015190
	C32.006924,115.015190 31.957891,115.015022 31.956804,115.623596
	C32.286293,116.110023 32.615780,116.596458 32.992962,117.024460
	C32.992962,117.024460 32.917599,117.027435 32.943913,117.645905
	C33.280960,118.140137 33.618008,118.634369 34.046215,119.819954
	C44.373638,138.749664 59.718266,151.729538 80.723465,156.779816
	C108.642479,163.492386 132.516205,155.293137 152.197281,134.719467
	C154.954941,137.032898 157.365616,139.055222 159.988541,141.608932
	C160.306488,141.804718 160.624451,142.000504 161.067047,142.626984
	C161.241852,142.902328 161.492172,143.047318 162.075104,143.670090
	C162.643158,144.741745 163.211197,145.813416 163.892532,146.910782
	C163.892532,146.910782 163.875412,146.795883 163.356216,146.981583
	C163.180359,147.293121 163.004517,147.604645 162.923004,147.933945
	C162.923004,147.933945 162.883911,147.846268 162.284882,148.133194
	C160.591995,149.791809 160.704681,151.165405 163.062973,152.637009
	C163.252167,152.904602 163.510620,153.040222 164.047043,153.556793
	C164.359421,153.734009 164.671814,153.911240 165.152252,154.546616
	C165.360611,154.829437 165.640335,154.976913 166.215271,155.517456
	C166.689728,155.826324 167.164200,156.135193 167.903519,156.206741
	C167.903519,156.206741 167.605331,156.400497 167.839096,156.868027
	C168.143021,157.025208 168.446930,157.182388 168.794464,157.209122
	C168.794464,157.209122 168.665192,157.256104 168.917603,157.825607
	C169.579224,158.305664 170.240860,158.785721 171.208847,159.843918
	C180.937180,168.420898 190.568405,177.111740 200.434647,185.527023
	C205.397766,189.760223 212.512970,189.213226 216.692169,184.819824
	C221.146408,180.137283 221.558884,173.505310 216.491150,168.749100
	C203.443207,156.503311 189.952881,144.728851 176.443909,132.590485
	C175.304886,133.978836 174.589310,134.851028 173.357483,135.953217
	C173.185547,136.279175 173.013626,136.605133 172.937729,136.938156
	C172.937729,136.938156 172.917786,136.843933 172.408112,137.037781
	C172.239517,137.348450 172.070923,137.659103 171.437286,138.137115
	C171.151230,138.348495 171.002029,138.631912 170.299362,138.975388
	C170.275208,138.348297 170.251038,137.721207 170.129990,137.071625
	C170.129990,137.071625 170.151474,137.168732 170.616135,136.951904
	C170.418091,136.605637 170.220047,136.259384 169.776489,135.329605
	C168.519119,134.223328 167.261765,133.117050 165.811157,131.498322
	C165.387405,131.160858 164.963654,130.823380 164.447784,130.525421
	C164.447784,130.525421 164.441956,130.425354 164.226990,130.026642
	C164.034515,129.775940 163.784134,129.615692 163.191299,129.766052
	C163.191299,129.766052 163.437576,129.503769 163.219452,129.071396
M160.446472,93.255890
	C169.399704,89.634109 173.432648,83.218613 172.678802,73.796906
	C172.008942,65.424477 166.894730,58.320496 158.405563,57.494576
	C147.444885,56.428204 136.302017,57.234726 124.861816,57.234726
	C124.861816,71.357910 124.861816,85.522934 124.861816,99.687965
	C123.081970,97.491486 122.005058,95.144638 120.955276,92.785721
	C116.095413,81.865364 111.099579,71.002029 106.465126,59.986721
	C104.820717,56.078217 101.866219,56.218349 98.699684,56.262814
	C95.584732,56.306545 92.776978,56.139309 91.137810,60.130100
	C85.272675,74.409660 78.953384,88.502701 72.803963,102.665451
	C71.505241,105.656532 70.198463,108.644119 68.694061,112.095177
	C70.704681,112.095177 72.065628,111.895210 73.347176,112.129494
	C79.161392,113.192421 82.178337,110.982101 84.267982,105.240410
	C88.457878,93.727875 93.580429,82.554779 98.727943,70.262650
	C101.843079,77.509857 104.608871,83.944321 107.468018,90.595963
	C94.895004,91.723343 94.895004,91.723343 92.912720,101.586983
	C97.196053,101.586983 101.354286,101.935379 105.428238,101.498253
	C110.450859,100.959320 113.585304,102.378937 114.951927,107.541145
	C115.397202,109.223106 117.015305,111.775276 118.250740,111.867371
	C124.291443,112.317726 130.384079,112.071388 136.933716,112.071388
	C136.933716,106.066818 136.933716,100.802460 136.933716,94.958359
	C140.991791,95.336685 144.505768,95.664284 148.345245,96.594528
	C157.446899,112.030891 160.075027,113.534523 177.374191,113.206268
	C178.372742,113.187317 179.387482,113.056801 180.367157,113.186371
	C183.483658,113.598572 184.998886,112.237076 186.207703,109.318329
	C191.404037,96.771805 196.890350,84.345390 202.611893,71.085205
	C205.752457,78.364639 208.589325,84.940132 211.644684,92.022064
	C207.241806,92.022064 203.766861,92.022064 200.068375,92.022064
	C198.696060,95.389374 197.366119,98.652733 195.795593,102.506447
	C201.692307,102.506447 206.667953,102.573563 211.640732,102.482826
	C214.947861,102.422485 217.324066,103.234055 218.122559,106.959396
	C219.172958,111.860085 222.122437,114.218513 227.393814,113.186729
	C229.111633,112.850487 230.950729,113.133881 233.387024,113.133881
	C232.258057,110.413307 231.435074,108.280693 230.499222,106.198822
	C223.830093,91.362694 216.974106,76.607140 210.568726,61.658344
	C208.973846,57.936253 206.685699,57.342667 203.318329,57.513851
	C199.774414,57.694004 196.444885,57.028839 194.498886,61.704090
	C188.314865,76.561020 181.591568,91.193611 175.059616,105.905319
	C174.575424,106.995857 173.955292,108.026039 173.151672,109.552994
	C169.100006,104.969612 165.438507,100.900299 161.876266,96.745857
	C161.006302,95.731270 160.461777,94.437637 160.446472,93.255890
z"/>
<path fill="#1535B4" opacity="1.000000" stroke="none"
	d="
M25.634714,93.005249
	C25.485338,92.561913 25.335960,92.118568 25.461205,90.988564
	C25.560921,84.869736 25.386015,79.437584 25.211111,74.005424
	C25.204714,73.551933 25.198317,73.098434 25.655804,72.207245
	C27.727036,65.151283 29.334383,58.533012 30.941730,51.914745
	C30.941729,51.914745 30.990198,51.973465 31.245415,51.793770
	C32.626324,49.023407 33.752022,46.432739 34.877716,43.842072
	C34.877712,43.842072 34.912125,43.929276 35.153137,43.797268
	C35.580494,43.084949 35.766838,42.504639 35.953178,41.924328
	C35.953182,41.924328 36.001194,41.981415 36.328613,41.927559
	C37.079304,40.849731 37.502575,39.825760 37.925850,38.801788
	C59.222912,4.843802 108.066338,-6.851023 142.920319,21.451874
	C151.812943,28.673056 158.968216,37.267479 164.063629,48.578270
	C156.598221,48.578270 149.699783,48.728401 142.818817,48.448780
	C141.478302,48.394306 140.002060,46.855453 138.932129,45.686638
	C121.401680,26.535986 97.940971,21.153385 76.140396,31.353113
	C54.484043,41.485363 42.066845,65.148026 45.113026,90.480019
	C47.938240,113.974495 66.172249,133.510468 89.663467,137.571030
	C106.720932,140.519485 121.618843,135.446960 134.166000,123.683899
	C136.930191,121.092438 139.736435,119.895836 143.475281,120.013100
	C149.598785,120.205170 155.732727,120.065063 162.752609,120.065063
	C161.676254,122.177589 160.896042,123.708885 159.890656,125.735748
	C159.908279,126.342636 160.151077,126.453949 160.393890,126.565254
	C160.393890,126.565254 160.359009,126.564354 160.368256,126.880508
	C160.721359,127.329849 161.065216,127.463036 161.409088,127.596222
	C161.303421,127.731140 161.197769,127.866058 161.237350,128.094696
	C161.728333,128.316025 162.074081,128.443649 162.419815,128.571274
	C162.300705,128.719650 162.181595,128.868027 162.227356,129.096924
	C162.740692,129.286240 163.089127,129.395004 163.437576,129.503769
	C163.437576,129.503769 163.191299,129.766052 163.300964,129.958557
	C163.754410,130.242477 164.098175,130.333923 164.441956,130.425354
	C164.441956,130.425354 164.447784,130.525421 164.433304,130.827820
	C164.947342,131.423752 165.475876,131.717270 166.004395,132.010788
	C167.261765,133.117050 168.519119,134.223328 169.902664,135.938385
	C170.069702,136.754349 170.110580,136.961533 170.151474,137.168732
	C170.151474,137.168732 170.129990,137.071625 169.855988,137.209641
	C166.993988,139.252411 164.406006,141.157166 161.818008,143.061920
	C161.492172,143.047318 161.241852,142.902328 160.904938,142.140305
	C160.420654,141.461609 160.098465,141.269577 159.776276,141.077545
	C157.365616,139.055222 154.954941,137.032898 152.197281,134.719467
	C132.516205,155.293137 108.642479,163.492386 80.723465,156.779816
	C59.718266,151.729538 44.373638,138.749664 33.999924,119.155914
	C33.608288,118.003731 33.262943,117.515587 32.917599,117.027435
	C32.917599,117.027435 32.992962,117.024460 32.976269,116.741989
	C32.625683,115.978012 32.291786,115.496521 31.957893,115.015022
	C31.957891,115.015022 32.006924,115.015190 32.004753,114.654785
	C31.312241,112.861206 30.621901,111.428032 29.931562,109.994858
	C29.931562,109.994858 29.739706,109.835472 29.824574,109.266968
	C28.484533,103.467400 27.059624,98.236320 25.634714,93.005249
z"/>
<path fill="#182B34" opacity="1.000000" stroke="none"
	d="
M148.019760,95.991882
	C144.505768,95.664284 140.991791,95.336685 136.933716,94.958359
	C136.933716,100.802460 136.933716,106.066818 136.933716,112.071388
	C130.384079,112.071388 124.291443,112.317726 118.250740,111.867371
	C117.015305,111.775276 115.397202,109.223106 114.951927,107.541145
	C113.585304,102.378937 110.450859,100.959320 105.428238,101.498253
	C101.354286,101.935379 97.196053,101.586983 92.912720,101.586983
	C94.895004,91.723343 94.895004,91.723343 107.468018,90.595963
	C104.608871,83.944321 101.843079,77.509857 98.727943,70.262650
	C93.580429,82.554779 88.457878,93.727875 84.267982,105.240410
	C82.178337,110.982101 79.161392,113.192421 73.347176,112.129494
	C72.065628,111.895210 70.704681,112.095177 68.694061,112.095177
	C70.198463,108.644119 71.505241,105.656532 72.803963,102.665451
	C78.953384,88.502701 85.272675,74.409660 91.137810,60.130100
	C92.776978,56.139309 95.584732,56.306545 98.699684,56.262814
	C101.866219,56.218349 104.820717,56.078217 106.465126,59.986721
	C111.099579,71.002029 116.095413,81.865364 120.955276,92.785721
	C122.005058,95.144638 123.081970,97.491486 124.861816,99.687965
	C124.861816,85.522934 124.861816,71.357910 124.861816,57.234726
	C136.302017,57.234726 147.444885,56.428204 158.405563,57.494576
	C166.894730,58.320496 172.008942,65.424477 172.678802,73.796906
	C173.432648,83.218613 169.399704,89.634109 159.637772,93.188683
	C155.225967,94.078278 151.622864,95.035080 148.019760,95.991882
M138.673141,84.990402
	C143.817581,84.819679 148.985474,84.894867 154.099686,84.407166
	C158.945465,83.945076 160.858597,80.398193 160.832184,75.983513
	C160.805298,71.492599 158.489227,68.026375 153.871582,67.612160
	C148.323395,67.114456 142.696472,67.494499 136.207001,67.494499
	C136.730347,73.570267 137.218399,79.236382 138.673141,84.990402
z"/>
<path fill="#192C34" opacity="1.000000" stroke="none"
	d="
M148.182495,96.293205
	C151.622864,95.035080 155.225967,94.078278 159.298340,93.196892
	C160.461777,94.437637 161.006302,95.731270 161.876266,96.745857
	C165.438507,100.900299 169.100006,104.969612 173.151672,109.552994
	C173.955292,108.026039 174.575424,106.995857 175.059616,105.905319
	C181.591568,91.193611 188.314865,76.561020 194.498886,61.704090
	C196.444885,57.028839 199.774414,57.694004 203.318329,57.513851
	C206.685699,57.342667 208.973846,57.936253 210.568726,61.658344
	C216.974106,76.607140 223.830093,91.362694 230.499222,106.198822
	C231.435074,108.280693 232.258057,110.413307 233.387024,113.133881
	C230.950729,113.133881 229.111633,112.850487 227.393814,113.186729
	C222.122437,114.218513 219.172958,111.860085 218.122559,106.959396
	C217.324066,103.234055 214.947861,102.422485 211.640732,102.482826
	C206.667953,102.573563 201.692307,102.506447 195.795593,102.506447
	C197.366119,98.652733 198.696060,95.389374 200.068375,92.022064
	C203.766861,92.022064 207.241806,92.022064 211.644684,92.022064
	C208.589325,84.940132 205.752457,78.364639 202.611893,71.085205
	C196.890350,84.345390 191.404037,96.771805 186.207703,109.318329
	C184.998886,112.237076 183.483658,113.598572 180.367157,113.186371
	C179.387482,113.056801 178.372742,113.187317 177.374191,113.206268
	C160.075027,113.534523 157.446899,112.030891 148.182495,96.293205
z"/>
<path fill="#1534B4" opacity="1.000000" stroke="none"
	d="
M173.873734,135.723236
	C174.589310,134.851028 175.304886,133.978836 176.443909,132.590485
	C189.952881,144.728851 203.443207,156.503311 216.491150,168.749100
	C221.558884,173.505310 221.146408,180.137283 216.692169,184.819824
	C212.512970,189.213226 205.397766,189.760223 200.434647,185.527023
	C190.568405,177.111740 180.937180,168.420898 170.977798,159.232742
	C170.052887,158.166412 169.359039,157.711258 168.665192,157.256104
	C168.665192,157.256104 168.794464,157.209122 168.723419,156.981079
	C168.303360,156.635529 167.954346,156.518005 167.605331,156.400497
	C167.605331,156.400497 167.903519,156.206741 167.764526,156.001373
	C167.080841,155.527023 166.536133,155.258026 165.991425,154.989029
	C165.640335,154.976913 165.360611,154.829437 164.959152,154.065323
	C164.456802,153.403992 164.147568,153.223938 163.838333,153.043884
	C163.510620,153.040222 163.252167,152.904602 163.018219,151.985748
	C162.943619,150.171738 162.913757,149.009003 162.883911,147.846268
	C162.883911,147.846268 162.923004,147.933945 163.139648,147.836334
	C163.529343,147.424438 163.702377,147.110153 163.875412,146.795883
	C163.875412,146.795883 163.892532,146.910782 164.170410,146.817078
	C166.628738,144.144714 168.809204,141.566040 170.989670,138.987366
	C171.002029,138.631912 171.151230,138.348495 171.919342,137.949829
	C172.573532,137.456345 172.745651,137.150146 172.917786,136.843933
	C172.917786,136.843933 172.937729,136.938156 173.155167,136.826080
	C173.539642,136.383743 173.706696,136.053497 173.873734,135.723236
z"/>
<path fill="#273FA0" opacity="1.000000" stroke="none"
	d="
M170.644516,138.981384
	C168.809204,141.566040 166.628738,144.144714 164.113770,146.804230
	C163.211197,145.813416 162.643158,144.741745 161.946564,143.365997
	C164.406006,141.157166 166.993988,139.252411 169.904419,137.220886
	C170.251038,137.721207 170.275208,138.348297 170.644516,138.981384
z"/>
<path fill="#263EA2" opacity="1.000000" stroke="none"
	d="
M30.672565,52.151505
	C29.334383,58.533012 27.727036,65.151283 25.782528,71.889275
	C27.098045,65.468758 28.750723,58.928509 30.672565,52.151505
z"/>
<path fill="#263EA2" opacity="1.000000" stroke="none"
	d="
M25.578293,93.383728
	C27.059624,98.236320 28.484533,103.467400 29.856108,109.146309
	C28.375805,104.316833 26.948837,99.039520 25.578293,93.383728
z"/>
<path fill="#263EA2" opacity="1.000000" stroke="none"
	d="
M25.102222,74.462463
	C25.386015,79.437584 25.560921,84.869736 25.497826,90.634140
	C25.170994,85.617424 25.082163,80.268463 25.102222,74.462463
z"/>
<path fill="#263EA2" opacity="1.000000" stroke="none"
	d="
M34.591331,44.032196
	C33.752022,46.432739 32.626324,49.023407 31.207346,51.794094
	C32.044357,49.390182 33.174652,46.806248 34.591331,44.032196
z"/>
<path fill="#263EA2" opacity="1.000000" stroke="none"
	d="
M29.930386,110.347366
	C30.621901,111.428032 31.312241,112.861206 31.986620,114.671326
	C31.290176,113.598808 30.609692,112.149345 29.930386,110.347366
z"/>
<path fill="#273FA0" opacity="1.000000" stroke="none"
	d="
M162.584396,147.989731
	C162.913757,149.009003 162.943619,150.171738 162.950623,151.770172
	C160.704681,151.165405 160.591995,149.791809 162.584396,147.989731
z"/>
<path fill="#263EA2" opacity="1.000000" stroke="none"
	d="
M37.646584,38.964706
	C37.502575,39.825760 37.079304,40.849731 36.292473,41.918350
	C36.408379,41.017876 36.887848,40.072750 37.646584,38.964706
z"/>
<path fill="#273FA0" opacity="1.000000" stroke="none"
	d="
M168.791397,157.540863
	C169.359039,157.711258 170.052887,158.166412 170.824615,158.943665
	C170.240860,158.785721 169.579224,158.305664 168.791397,157.540863
z"/>
<path fill="#263EA2" opacity="1.000000" stroke="none"
	d="
M32.930756,117.336670
	C33.262943,117.515587 33.608288,118.003731 33.954346,118.810242
	C33.618008,118.634369 33.280960,118.140137 32.930756,117.336670
z"/>
<path fill="#263EA2" opacity="1.000000" stroke="none"
	d="
M35.696613,42.086552
	C35.766838,42.504639 35.580494,43.084949 35.106262,43.797413
	C35.025597,43.369301 35.232822,42.809036 35.696613,42.086552
z"/>
<path fill="#273FA0" opacity="1.000000" stroke="none"
	d="
M166.103348,155.253235
	C166.536133,155.258026 167.080841,155.527023 167.632111,156.120041
	C167.164200,156.135193 166.689728,155.826324 166.103348,155.253235
z"/>
<path fill="#263EA2" opacity="1.000000" stroke="none"
	d="
M31.957348,115.319305
	C32.291786,115.496521 32.625683,115.978012 32.952423,116.771194
	C32.615780,116.596458 32.286293,116.110023 31.957348,115.319305
z"/>
<path fill="#273FA0" opacity="1.000000" stroke="none"
	d="
M165.907776,131.754547
	C165.475876,131.717270 164.947342,131.423752 164.479370,130.808075
	C164.963654,130.823380 165.387405,131.160858 165.907776,131.754547
z"/>
<path fill="#273FA0" opacity="1.000000" stroke="none"
	d="
M161.309692,127.362747
	C161.065216,127.463036 160.721359,127.329849 160.375031,126.894745
	C160.651810,126.771645 160.931046,126.950462 161.309692,127.362747
z"/>
<path fill="#273FA0" opacity="1.000000" stroke="none"
	d="
M160.349792,126.381348
	C160.151077,126.453949 159.908279,126.342636 159.825058,126.114365
	C159.984650,125.997414 160.305679,126.197433 160.349792,126.381348
z"/>
<path fill="#273FA0" opacity="1.000000" stroke="none"
	d="
M170.383804,137.060318
	C170.110580,136.961533 170.069702,136.754349 170.025421,136.230133
	C170.220047,136.259384 170.418091,136.605637 170.383804,137.060318
z"/>
<path fill="#273FA0" opacity="1.000000" stroke="none"
	d="
M173.615601,135.838226
	C173.706696,136.053497 173.539642,136.383743 173.107147,136.822540
	C173.013626,136.605133 173.185547,136.279175 173.615601,135.838226
z"/>
<path fill="#273FA0" opacity="1.000000" stroke="none"
	d="
M162.318695,128.341644
	C162.074081,128.443649 161.728333,128.316025 161.385559,127.884842
	C161.664871,127.758171 161.941238,127.935089 162.318695,128.341644
z"/>
<path fill="#273FA0" opacity="1.000000" stroke="none"
	d="
M172.662949,136.940857
	C172.745651,137.150146 172.573532,137.456345 172.151855,137.866165
	C172.070923,137.659103 172.239517,137.348450 172.662949,136.940857
z"/>
<path fill="#273FA0" opacity="1.000000" stroke="none"
	d="
M159.882416,141.343231
	C160.098465,141.269577 160.420654,141.461609 160.842621,141.924957
	C160.624451,142.000504 160.306488,141.804718 159.882416,141.343231
z"/>
<path fill="#273FA0" opacity="1.000000" stroke="none"
	d="
M163.615814,146.888733
	C163.702377,147.110153 163.529343,147.424438 163.092484,147.827454
	C163.004517,147.604645 163.180359,147.293121 163.615814,146.888733
z"/>
<path fill="#273FA0" opacity="1.000000" stroke="none"
	d="
M163.942688,153.300339
	C164.147568,153.223938 164.456802,153.403992 164.875122,153.836243
	C164.671814,153.911240 164.359421,153.734009 163.942688,153.300339
z"/>
<path fill="#273FA0" opacity="1.000000" stroke="none"
	d="
M164.334473,130.225998
	C164.098175,130.333923 163.754410,130.242477 163.443237,129.848480
	C163.784134,129.615692 164.034515,129.775940 164.334473,130.225998
z"/>
<path fill="#273FA0" opacity="1.000000" stroke="none"
	d="
M167.722214,156.634262
	C167.954346,156.518005 168.303360,156.635529 168.701614,157.046295
	C168.446930,157.182388 168.143021,157.025208 167.722214,156.634262
z"/>
<path fill="#273FA0" opacity="1.000000" stroke="none"
	d="
M163.328522,129.287582
	C163.089127,129.395004 162.740692,129.286240 162.401886,128.872833
	C162.745819,128.631622 163.015121,128.799347 163.328522,129.287582
z"/>
<path fill="#FAFBFB" opacity="1.000000" stroke="none"
	d="
M138.189804,84.946449
	C137.218399,79.236382 136.730347,73.570267 136.207001,67.494499
	C142.696472,67.494499 148.323395,67.114456 153.871582,67.612160
	C158.489227,68.026375 160.805298,71.492599 160.832184,75.983513
	C160.858597,80.398193 158.945465,83.945076 154.099686,84.407166
	C148.985474,84.894867 143.817581,84.819679 138.189804,84.946449
z"/>
</svg>
